PathFileType	4	(X/Y/Z)	G:\マイドライブ\biomec\experimentalData\240725\SJ1.trc
DataRate	CameraRate	NumFrames	NumMarkers	Units	OrigDataRate	OrigDataStartFrame	OrigNumFrames
200.00	200.00	      5	52	mm	200.00	860	      2292
Frame#	Time	handR			wrRI			wrRO			elbRI			elbRO			shRF			shRU			shRB			handL			wrLI			wrLO			elbLI			elbLO			shLF			shLU			shLB			toeR			baRI			baRO			heelR			anRI			anRO			knRI			knRO			troR			toeL			baLI			baLO			heelL			anLI			anLO			knLI			knLO			troL			head			earR			earL			clav			c7			ribR			ribL			xiph			ASISR			ASISL			PSISR			PSISL			t8			t11			L1			L3			LS			COX			
		X1	Y1	Z1	X2	Y2	Z2	X3	Y3	Z3	X4	Y4	Z4	X5	Y5	Z5	X6	Y6	Z6	X7	Y7	Z7	X8	Y8	Z8	X9	Y9	Z9	X10	Y10	Z10	X11	Y11	Z11	X12	Y12	Z12	X13	Y13	Z13	X14	Y14	Z14	X15	Y15	Z15	X16	Y16	Z16	X17	Y17	Z17	X18	Y18	Z18	X19	Y19	Z19	X20	Y20	Z20	X21	Y21	Z21	X22	Y22	Z22	X23	Y23	Z23	X24	Y24	Z24	X25	Y25	Z25	X26	Y26	Z26	X27	Y27	Z27	X28	Y28	Z28	X29	Y29	Z29	X30	Y30	Z30	X31	Y31	Z31	X32	Y32	Z32	X33	Y33	Z33	X34	Y34	Z34	X35	Y35	Z35	X36	Y36	Z36	X37	Y37	Z37	X38	Y38	Z38	X39	Y39	Z39	X40	Y40	Z40	X41	Y41	Z41	X42	Y42	Z42	X43	Y43	Z43	X44	Y44	Z44	X45	Y45	Z45	X46	Y46	Z46	X47	Y47	Z47	X48	Y48	Z48	X49	Y49	Z49	X50	Y50	Z50	X51	Y51	Z51	X52	Y52	Z52	

860	4.295	496.82526	786.38629	732.32025	457.84567	720.00830	728.57227	441.51569	756.94171	789.50195	459.24008	603.61700	948.50446	512.79980	557.82275	908.28448	746.94092	755.31921	973.25293	669.30652	724.64178	1047.36182	730.08551	722.55481	1031.41309	313.61197	1074.35803	404.06839	460.67432	1131.13367	738.46863	456.88995	1085.10425	799.44702	482.28131	1242.66467	950.06763	533.91443	1288.77112	903.24652	753.42847	1073.83179	973.52814	740.57281	1109.42554	1029.49829	664.91632	1098.02527	1044.41345	715.72479	737.22894	53.19317	639.78119	793.24451	35.25777	604.38715	673.49866	43.28055	434.51044	781.73419	39.62305	532.10309	812.58563	107.28739	502.29337	718.98547	104.03189	676.31525	827.88770	429.53790	682.50018	713.34851	438.16843	397.14362	741.11377	679.45447	724.46393	1073.95581	52.31320	651.61993	1028.28418	52.26419	626.88293	1141.97620	45.38000	439.22876	1075.20496	39.56756	541.00867	1029.02795	127.87563	514.38831	1119.15002	104.88446	681.72797	1018.70624	442.00198	678.13226	1139.99609	449.65283	403.87357	1103.63879	678.52087	789.90082	910.77026	1271.99194	860.67017	833.97644	1114.28857	858.38751	992.93542	1116.26233	761.93402	918.31427	954.84149	719.32678	919.75836	1091.97961	536.35785	822.22308	755.92468	539.43555	1033.99084	759.89203	676.29102	920.68628	814.58948	460.30685	819.86206	666.57300	463.62375	1037.05225	679.59015	333.62613	866.03979	792.35059	342.05273	986.72375	796.97919	533.68536	925.04932	991.63556	449.83301	927.07935	898.52869	410.30713	929.62225	853.22260	369.63531	926.72314	818.67950	323.94901	927.88947	795.97186	239.35986	930.96295	700.26233	
861	4.300	496.68945	786.27802	732.34009	457.73965	719.82990	728.54358	441.35165	756.80005	789.46185	459.08090	603.50543	948.47919	512.68402	557.74347	908.28784	746.79712	755.18799	973.35254	669.16595	724.54205	1047.39648	729.88831	722.45306	1031.47644	313.56949	1074.45129	403.02869	460.58533	1131.02563	738.41669	456.74985	1084.92566	799.40570	482.12988	1242.47986	950.00458	533.79181	1288.61353	903.20734	753.30902	1073.71497	973.56665	740.45898	1109.33411	1029.53882	664.78717	1097.88550	1044.45203	715.71625	737.22211	53.18748	639.79132	793.23761	35.24969	604.39349	673.49054	43.24649	433.84564	781.43658	39.65370	532.10510	812.56891	107.30186	502.29596	718.97656	104.03776	676.32843	827.83923	429.57727	682.49707	713.30951	438.16199	397.08777	741.00732	679.37689	724.44946	1073.96582	52.29739	651.64581	1028.30444	52.22186	627.45911	1141.30334	44.89839	439.22778	1075.20447	39.55856	540.75903	1029.09473	127.58529	514.37933	1119.15686	104.88097	681.70972	1018.64862	442.02963	678.11072	1139.93579	449.67349	403.84204	1103.55151	678.49377	789.66479	910.71924	1272.07031	860.43195	833.83093	1114.39148	858.21771	992.86462	1116.33130	761.73218	918.14508	954.90674	718.85889	919.53723	1092.22290	536.24969	822.02808	755.95679	539.32068	1033.83374	759.86090	676.19910	920.51074	814.61090	460.23795	819.79608	666.55017	463.56244	1036.93750	679.51294	333.54327	865.94690	792.30078	341.99463	986.61658	796.90503	533.51892	924.89978	991.63257	449.68930	926.94452	898.50702	410.18793	929.53711	853.18964	369.54947	926.60083	818.61963	323.73590	927.92920	795.84497	239.31937	930.84753	700.19879	
862	4.305	496.59082	786.14600	732.33374	457.59814	719.72394	728.49463	441.20883	756.66724	789.43036	458.89822	603.41803	948.46411	512.56830	557.67560	908.28552	746.63806	755.05652	973.37946	669.02344	724.43506	1047.42554	729.65863	722.32318	1031.51563	313.54126	1074.54346	402.01697	460.50134	1130.90906	738.34241	456.66397	1084.79407	799.33325	481.96725	1242.32458	949.93549	533.68573	1288.46411	903.14197	753.20172	1073.59961	973.59937	740.35364	1109.22656	1029.59521	664.66351	1097.75769	1044.45142	715.73468	737.21759	53.16732	639.75476	793.22516	35.23408	604.39331	673.49188	43.24781	433.85126	781.41962	39.67005	532.11298	812.57544	107.32076	502.31442	718.96973	104.02491	676.32007	827.76929	429.56891	682.48077	713.29108	438.15674	397.01614	740.91168	679.34186	724.45966	1073.97095	52.29685	651.66986	1028.29102	52.24015	626.88843	1141.98755	45.38499	439.23911	1075.21643	39.57057	541.01855	1028.99451	127.85536	514.39465	1119.12854	104.88985	681.67651	1018.60858	442.02719	678.06787	1139.84094	449.69928	403.78485	1103.44995	678.46014	789.46661	910.65460	1272.15540	860.19354	833.70538	1114.49768	857.99634	992.82501	1116.42542	761.55341	918.00269	954.96552	718.63879	919.42780	1092.24817	536.15851	821.87372	756.01392	539.19269	1033.66724	759.81732	676.09033	920.33820	814.64941	460.16708	819.67365	666.55096	463.46005	1036.84851	679.46014	333.42111	865.84528	792.26599	341.90024	986.52905	796.87451	533.38757	924.80786	991.64612	449.53674	926.78937	898.50134	410.08276	929.42474	853.16968	369.43027	926.51324	818.60010	323.63147	927.82397	795.77533	239.29446	930.72150	700.06213	
863	4.310	496.42960	786.03638	732.32367	457.47821	719.57001	728.46558	441.08096	756.53729	789.38708	458.71698	603.31140	948.47278	512.42999	557.56659	908.29639	746.44824	754.94427	973.41486	668.83990	724.29742	1047.43799	729.41699	722.16827	1031.56152	313.52710	1074.63428	401.03336	460.46008	1130.81726	738.31708	456.55698	1084.65698	799.28394	481.77036	1242.21838	949.89117	533.56158	1288.34338	903.10126	753.11224	1073.44775	973.62433	740.21002	1109.13916	1029.66272	664.50775	1097.59766	1044.46680	715.74329	737.20538	53.16172	639.78857	793.22571	35.23790	604.39624	673.50360	43.26630	434.54849	781.73248	39.60978	532.09070	812.56476	107.31527	502.33826	718.95776	104.02127	676.31934	827.74420	429.56857	682.49939	713.26276	438.16699	396.96487	740.81470	679.27924	724.45752	1073.94824	52.29515	651.65399	1028.27307	52.25561	626.85352	1141.97095	45.40148	439.24408	1075.20410	39.57207	541.01538	1028.97656	127.86478	514.34906	1119.14392	104.88875	681.68964	1018.50604	442.01620	678.05865	1139.75513	449.69879	403.69934	1103.34766	678.45648	789.25330	910.59302	1272.26794	860.01257	833.61713	1114.58215	857.83942	992.73700	1116.51575	761.36102	917.81281	955.02069	718.46515	919.30054	1092.28003	536.09436	821.77655	756.05493	539.07196	1033.51819	759.80737	675.99512	920.17145	814.66754	460.09488	819.57184	666.52673	463.40619	1036.73328	679.44580	333.35687	865.72986	792.18890	341.96902	986.40369	796.62170	533.23950	924.71411	991.63300	449.41565	926.66876	898.46680	409.97202	929.31274	853.12592	369.32611	926.34802	818.43457	323.73236	927.65674	795.58789	239.24632	930.60217	699.95105	
864	4.315	496.31900	785.91150	732.27948	457.35687	719.43237	728.42047	440.90359	756.41998	789.36719	458.48566	603.22247	948.43878	512.23999	557.44922	908.30804	746.27130	754.79248	973.44489	668.60052	724.15039	1047.46021	729.19604	722.01636	1031.59167	313.52744	1074.72388	400.07803	460.41263	1130.69849	738.23987	456.47260	1084.50256	799.23529	481.62585	1242.12830	949.81781	533.48242	1288.22754	903.06567	753.05609	1073.30237	973.67334	740.10187	1109.03894	1029.70093	664.39520	1097.44495	1044.46045	715.72809	737.21948	53.17064	639.76569	793.22919	35.23994	604.39941	673.48438	43.26275	434.56216	781.72858	39.60983	532.12494	812.58319	107.28864	502.35104	718.95575	104.03838	676.31970	827.72589	429.58356	682.49976	713.25970	438.16504	396.92023	740.73035	679.24823	724.46069	1073.94092	52.30140	651.68549	1028.31287	52.22001	626.59698	1142.07495	45.51611	439.24295	1075.20984	39.57882	541.00018	1028.99780	127.86334	514.35529	1119.13623	104.92254	681.64716	1018.44861	442.03641	678.01172	1139.66528	449.75281	403.61691	1103.24109	678.42004	789.21783	910.62323	1272.16345	859.87488	833.52661	1114.64917	857.68298	992.65430	1116.59302	761.17792	917.67603	955.09137	718.27661	919.17303	1092.28137	535.99677	821.59998	756.07196	538.97583	1033.40417	759.81830	675.86847	920.05695	814.67584	460.04248	819.45154	666.54065	463.33713	1036.65393	679.43030	333.18994	865.60785	792.10400	341.66483	986.36145	796.75842	533.08636	924.60468	991.64685	449.26984	926.54993	898.43335	409.85349	929.20959	853.08228	369.23425	926.32471	818.55035	323.44287	927.56610	795.63092	239.19896	930.49615	699.82306	
